<svg xmlns="http://www.w3.org/2000/svg" viewBox="0 0 607.63 135.25">
  <path d="M196.54 135.25q-16.89 0-26.62-10.5t-9.73-31.94q0-21.43 9.28-31.86T197 50.53q16.89 0 26.62 10.42t9.73 31.86q0 21.45-9.35 31.94t-27.46 10.5Zm.3-1.52q7 0 11.26-4t6.16-13q1.89-9 1.9-23.88 0-14.75-1.9-23.72t-6.16-13q-4.26-4-11.41-4c-4.66 0-8.42 1.35-11.25 4s-4.9 7-6.16 13-1.9 13.89-1.9 23.72.63 17.9 1.9 23.88 3.34 10.32 6.23 13 6.67 4 11.33 4ZM239.88 133.73v-1.53h1.83a17.88 17.88 0 0 0 6.61-1.06 7.79 7.79 0 0 0 4-3.5 13.62 13.62 0 0 0 1.37-6.69V64.83a13.25 13.25 0 0 0-1.37-6.54 7.79 7.79 0 0 0-4-3.5 17.88 17.88 0 0 0-6.61-1.06h-.46v-1.52h29.05v14.6h.3a29.33 29.33 0 0 1 3.58-7.91 18 18 0 0 1 6.61-6q4.26-2.36 11.11-2.36 7.91 0 12 3.12a10.36 10.36 0 0 1 4.1 8.74 10.41 10.41 0 0 1-3.8 8.36Q300.41 74 292.51 74q0-10-3-13.84t-6.92-3.8a8.16 8.16 0 0 0-6.24 2.59 17 17 0 0 0-3.72 7 48.64 48.64 0 0 0-1.75 9.43q-.46 5-.46 10.19v35a15.06 15.06 0 0 0 1.37 7 7.63 7.63 0 0 0 4.11 3.65 18 18 0 0 0 6.54 1.06h2.73v1.53ZM345.73 135.25q-10 0-16.88-4.72t-10.34-14.22q-3.5-9.5-3.5-23.5 0-14.3 3.42-23.57t10.19-14q6.76-4.71 16.66-4.72T361.17 56q5.85 5.48 7.68 16.73h.31q0-5.62-.08-10.88t-.08-9.5V30.76a12.79 12.79 0 0 0-1.44-6.54 8.2 8.2 0 0 0-4.11-3.5 17.61 17.61 0 0 0-6.45-1.06h-.91v-1.52h29.65V121a13.73 13.73 0 0 0 1.37 6.69 7.77 7.77 0 0 0 4.11 3.5 18 18 0 0 0 6.54 1.06h1.37v1.53h-30v-21.3h-.31q-2 11.71-7.83 17.26t-15.26 5.51Zm3.65-2.74q9.89 0 14.76-10t4.86-30.3a91.41 91.41 0 0 0-2.13-21.53q-2.13-8.58-6.38-13a14.75 14.75 0 0 0-11.11-4.41 13.25 13.25 0 0 0-10 4q-3.87 4-5.63 12.55a114.78 114.78 0 0 0-1.74 22.2 125.36 125.36 0 0 0 1.74 23.12q1.75 9 5.63 13.16a13 13 0 0 0 10 4.21ZM503.14 135.25q-13.38 0-19.92-7.08t-6.54-22.58V66.65a21.52 21.52 0 0 0-1.14-7.83 7 7 0 0 0-3.73-4 17.62 17.62 0 0 0-7-1.14h-.46v-1.47h29.05v55.36a64.31 64.31 0 0 0 1.29 14.29q1.29 5.48 4.34 8.06t8.21 2.59a15.2 15.2 0 0 0 10.49-3.65 21.72 21.72 0 0 0 6.09-10.42 58.55 58.55 0 0 0 2-16.2V66.35a18.12 18.12 0 0 0-1.29-7.68 7.62 7.62 0 0 0-4-3.8 17.32 17.32 0 0 0-6.77-1.14h-.46v-1.52h29.2v67.68a16.77 16.77 0 0 0 1.37 7.52 7.6 7.6 0 0 0 4 3.73 17.94 17.94 0 0 0 6.62 1.06h.51v1.53h-28.44v-19h-.3a30.92 30.92 0 0 1-3.8 11.11 18.42 18.42 0 0 1-5.86 6.08 20.5 20.5 0 0 1-6.76 2.66 34.73 34.73 0 0 1-6.7.67ZM563.06 133.73v-1.53h2a17.94 17.94 0 0 0 6.62-1.06 7.83 7.83 0 0 0 4-3.5 13.73 13.73 0 0 0 1.37-6.69V30.76a13.36 13.36 0 0 0-1.37-6.54 7.77 7.77 0 0 0-4.11-3.5 18.22 18.22 0 0 0-6.57-1.06h-2v-1.52h30.73v102.35a14.93 14.93 0 0 0 1.37 7 7.64 7.64 0 0 0 4 3.65 17.84 17.84 0 0 0 6.61 1.06h1.83v1.53Z"/><path class="cls-1" d="M471.16 14.51a9.56 9.56 0 0 1-2.28 6.58 7.59 7.59 0 0 1-5.95 2.58 8.12 8.12 0 0 1-5.86-2.29 7.66 7.66 0 0 1-2.38-5.73A13.22 13.22 0 0 1 457.07 9a3.47 3.47 0 0 0 .55-1.72c0-2.92-2-4.39-6-4.39q-10.15 0-13.42 13.75-1.63 7.25-1.63 25.38v9.36h11.93c2.41 0 3.62.54 3.62 1.62s-1.57 1.62-4.7 1.62h-10.84v74.82q0 2.68 5.05 2.68 7.77-.18 8.49.76a1.18 1.18 0 0 1 .18.77c0 .89-.73 1.33-2.19 1.33a7.18 7.18 0 0 1-1.83-.19l-15 .19h-19.96c-2.19 0-3.29-.44-3.29-1.33s.88-1.53 2.63-1.53q9.4 0 10.35-1.14a1.59 1.59 0 0 0 .38-1.15l-.19-2.48V54.78q-6.76 0-7.86-.19c-.74-.12-1.1-.63-1.1-1.52 0-1.15 1.1-1.72 3.29-1.72h5.86q.72-24.24 6.22-34.93Q436 0 452.86 0q8.06 0 13.14 4a12.71 12.71 0 0 1 5.16 10.51ZM45 70a99.09 99.09 0 0 0-4.22-10.56l-2.12-4.23C32 41.88 26 74.25 11.2 76.37 3.5 77.47-4.28 71.63 2.75 70c4.12-.94 8.45-4.23 8.45-4.23L30.21 51c4.23-4.23 14.79 2.11 25.35 0 2.11 0 2.11 6.33 3.54 12.41.25 1.22.53 2.53.84 3.95l9.73 34.53 2.2 8.21c.76 2.84 1.53 5.65 2.29 8.44s1.49 5.4 2.2 7.83h.31c.6-2.22 1.16-4.38 1.67-6.46s1-4.16 1.6-6.24 1.14-4.23 1.74-6.46L96 53.54h9.73l16.58 50q1.06 2.9 2 5.78t1.9 5.86c.66 2 1.32 3.93 2 5.85s1.24 3.91 1.75 5.93h.45q.92-3.5 1.83-7.3t2-7.83q1.07-4 2.13-7.83l9.28-35.44q.62-2.28 1-4.26a19 19 0 0 0 .38-3.5 5.24 5.24 0 0 0-2.51-4.94c-1.67-1-4.44-1.44-8.29-1.44H131v-1.48h31.79v1.52h-3.69a12 12 0 0 0-4.95 1 8.36 8.36 0 0 0-3.72 3.54 28.84 28.84 0 0 0-2.74 7.3l-17.95 68.13h-12.62L94.46 65.56l-18.4 68.89H63.28Z"/>
</svg>
