<?xml version="1.0" standalone="no"?>
<!DOCTYPE svg PUBLIC "-//W3C//DTD SVG 20010904//EN"
 "http://www.w3.org/TR/2001/REC-SVG-20010904/DTD/svg10.dtd">
<svg version="1.0" xmlns="http://www.w3.org/2000/svg"
 width="700.000000pt" height="700.000000pt" viewBox="0 0 700.000000 700.000000"
 preserveAspectRatio="xMidYMid meet">
<metadata>
Created by potrace 1.14, written by Peter Selinger 2001-2017
</metadata>
<g transform="translate(0.000000,700.000000) scale(0.100000,-0.100000)"
fill="#000000" stroke="none">
<path d="M5 6988 c-3 -7 -4 -1581 -3 -3498 l3 -3485 3495 0 3495 0 0 3495 0
3495 -3493 3 c-2789 2 -3494 0 -3497 -10z m2179 -2534 c117 -20 178 -25 270
-23 139 4 138 5 156 -104 35 -213 76 -383 214 -892 84 -308 184 -678 222 -823
38 -144 73 -261 78 -259 6 2 23 55 38 118 30 118 475 1850 484 1882 5 15 20
17 133 17 l127 0 232 -722 c188 -583 396 -1235 418 -1305 2 -7 7 -13 11 -13 4
0 56 193 115 428 59 235 157 623 219 862 127 497 139 578 98 640 -14 20 -45
46 -73 59 -44 22 -66 25 -193 29 -113 4 -143 7 -143 18 0 12 71 14 425 14 355
0 425 -2 425 -14 0 -10 -23 -15 -92 -18 -142 -7 -199 -44 -258 -169 -19 -41
-68 -211 -125 -435 -52 -203 -166 -648 -253 -989 l-159 -620 -167 0 -168 0
-244 765 c-344 1078 -365 1143 -369 1138 -3 -3 -495 -1895 -495 -1904 0 -2
-76 -4 -169 -4 -153 0 -170 2 -175 18 -3 9 -116 420 -251 911 -248 903 -286
1025 -383 1218 -56 111 -91 148 -132 138 -37 -8 -99 -80 -171 -197 -173 -282
-268 -395 -376 -446 -50 -23 -71 -27 -148 -27 -78 0 -97 4 -148 29 -101 49
-113 99 -32 129 141 53 202 93 497 328 163 131 305 239 315 242 40 10 103 6
247 -19z"/>
</g>
</svg>
